<mxfile host="65bd71144e">
    <diagram id="aDc1hncILwQoEWt4NbYm" name="Page-1">
        <mxGraphModel dx="14864" dy="13277" grid="1" gridSize="10" guides="1" tooltips="1" connect="1" arrows="1" fold="1" page="1" pageScale="1" pageWidth="827" pageHeight="1169" math="0" shadow="0">
            <root>
                <mxCell id="0"/>
                <mxCell id="1" parent="0"/>
                <mxCell id="74" value="" style="edgeStyle=orthogonalEdgeStyle;rounded=0;orthogonalLoop=1;jettySize=auto;html=1;fontSize=8;entryX=0;entryY=0.5;entryDx=0;entryDy=0;" parent="1" source="78" target="201" edge="1">
                    <mxGeometry relative="1" as="geometry">
                        <mxPoint x="-440" y="-2892" as="targetPoint"/>
                    </mxGeometry>
                </mxCell>
                <mxCell id="75" value="FALSE: 기존거래" style="edgeLabel;html=1;align=center;verticalAlign=middle;resizable=0;points=[];fontSize=8;" parent="74" vertex="1" connectable="0">
                    <mxGeometry x="0.2361" y="1" relative="1" as="geometry">
                        <mxPoint x="-21" y="1" as="offset"/>
                    </mxGeometry>
                </mxCell>
                <mxCell id="76" value="" style="edgeStyle=orthogonalEdgeStyle;rounded=0;orthogonalLoop=1;jettySize=auto;html=1;fontSize=8;" parent="1" source="78" target="85" edge="1">
                    <mxGeometry relative="1" as="geometry"/>
                </mxCell>
                <mxCell id="77" value="TRUE: 입찰거래" style="edgeLabel;html=1;align=center;verticalAlign=middle;resizable=0;points=[];fontSize=8;" parent="76" vertex="1" connectable="0">
                    <mxGeometry x="-0.2511" relative="1" as="geometry">
                        <mxPoint as="offset"/>
                    </mxGeometry>
                </mxCell>
                <mxCell id="78" value="&lt;font style=&quot;font-size: 8px;&quot;&gt;&lt;span style=&quot;font-size: 8px;&quot;&gt;입찰거래인가?&lt;br style=&quot;font-size: 8px;&quot;&gt;&lt;/span&gt;&lt;span style=&quot;font-size: 8px;&quot;&gt;SITE_WSTE_DISPOSAL_ORDER&lt;/span&gt;&lt;br style=&quot;font-size: 8px;&quot;&gt;&lt;span style=&quot;font-size: 8px;&quot;&gt;COLLECTOR_ID IS NULL&lt;/span&gt;&lt;br style=&quot;font-size: 8px;&quot;&gt;&lt;/font&gt;" style="rhombus;whiteSpace=wrap;html=1;shadow=0;fontFamily=Helvetica;fontSize=8;align=center;strokeWidth=1;spacing=6;spacingTop=-4;" parent="1" vertex="1">
                    <mxGeometry x="-840" y="-2980" width="220" height="176" as="geometry"/>
                </mxCell>
                <mxCell id="79" value="" style="edgeStyle=orthogonalEdgeStyle;rounded=0;orthogonalLoop=1;jettySize=auto;html=1;fontSize=8;" parent="1" source="85" target="89" edge="1">
                    <mxGeometry relative="1" as="geometry"/>
                </mxCell>
                <mxCell id="80" value="TRUE:방문종료일 있음" style="edgeLabel;html=1;align=center;verticalAlign=middle;resizable=0;points=[];fontSize=8;" parent="79" vertex="1" connectable="0">
                    <mxGeometry x="-0.2288" relative="1" as="geometry">
                        <mxPoint as="offset"/>
                    </mxGeometry>
                </mxCell>
                <mxCell id="81" style="edgeStyle=orthogonalEdgeStyle;rounded=0;orthogonalLoop=1;jettySize=auto;html=1;exitX=1;exitY=0.5;exitDx=0;exitDy=0;fontSize=8;entryX=1;entryY=0.5;entryDx=0;entryDy=0;" parent="1" source="89" target="94" edge="1">
                    <mxGeometry relative="1" as="geometry">
                        <Array as="points">
                            <mxPoint x="-420" y="-2380"/>
                            <mxPoint x="-420" y="-1872"/>
                        </Array>
                        <mxPoint x="-410" y="-1940" as="targetPoint"/>
                    </mxGeometry>
                </mxCell>
                <mxCell id="82" value="FALSE:방문시작일 없음" style="edgeLabel;html=1;align=center;verticalAlign=middle;resizable=0;points=[];fontSize=8;" parent="81" vertex="1" connectable="0">
                    <mxGeometry x="-0.9216" y="1" relative="1" as="geometry">
                        <mxPoint x="33" y="1" as="offset"/>
                    </mxGeometry>
                </mxCell>
                <mxCell id="83" style="edgeStyle=orthogonalEdgeStyle;html=1;entryX=0;entryY=0.5;entryDx=0;entryDy=0;fontSize=8;" parent="1" source="85" target="104" edge="1">
                    <mxGeometry relative="1" as="geometry">
                        <Array as="points">
                            <mxPoint x="-1210" y="-2636"/>
                            <mxPoint x="-1210" y="-1352"/>
                        </Array>
                    </mxGeometry>
                </mxCell>
                <mxCell id="84" value="FALSE: 방문종료일 없음" style="edgeLabel;html=1;align=center;verticalAlign=middle;resizable=0;points=[];fontSize=8;" parent="83" vertex="1" connectable="0">
                    <mxGeometry x="-0.8863" y="-2" relative="1" as="geometry">
                        <mxPoint as="offset"/>
                    </mxGeometry>
                </mxCell>
                <mxCell id="85" value="&lt;font style=&quot;font-size: 8px;&quot;&gt;&lt;font style=&quot;font-size: 8px;&quot;&gt;배출자가 결정한 &lt;br style=&quot;font-size: 8px;&quot;&gt;방문종료일이&amp;nbsp;존재하는가?&lt;/font&gt;&lt;span style=&quot;font-size: 8px;&quot;&gt;SITE_WSTE_DISPOSAL_ORDER&lt;/span&gt;&lt;br style=&quot;font-size: 8px;&quot;&gt;&lt;span style=&quot;font-size: 8px;&quot;&gt;VISIT_END_AT IS NOT NULL&lt;/span&gt;&lt;br style=&quot;font-size: 8px;&quot;&gt;&lt;/font&gt;" style="rhombus;whiteSpace=wrap;html=1;shadow=0;fontFamily=Helvetica;fontSize=8;align=center;strokeWidth=1;spacing=6;spacingTop=-4;" parent="1" vertex="1">
                    <mxGeometry x="-840" y="-2724" width="220" height="176" as="geometry"/>
                </mxCell>
                <mxCell id="86" value="&lt;font style=&quot;font-size: 8px;&quot;&gt;배출자 상태 흐름도&lt;/font&gt;" style="shape=process;whiteSpace=wrap;html=1;backgroundOutline=1;fontSize=8;" parent="1" vertex="1">
                    <mxGeometry x="-950" y="-3360" width="430" height="60" as="geometry"/>
                </mxCell>
                <mxCell id="87" value="" style="edgeStyle=orthogonalEdgeStyle;rounded=0;orthogonalLoop=1;jettySize=auto;html=1;fontSize=8;entryX=0.5;entryY=0;entryDx=0;entryDy=0;" parent="1" source="89" target="189" edge="1">
                    <mxGeometry relative="1" as="geometry">
                        <mxPoint x="-730" y="-1940" as="targetPoint"/>
                    </mxGeometry>
                </mxCell>
                <mxCell id="88" value="TRUE:방문시작일 있음" style="edgeLabel;html=1;align=center;verticalAlign=middle;resizable=0;points=[];fontSize=8;" parent="87" vertex="1" connectable="0">
                    <mxGeometry x="-0.3255" relative="1" as="geometry">
                        <mxPoint as="offset"/>
                    </mxGeometry>
                </mxCell>
                <mxCell id="89" value="&lt;font style=&quot;font-size: 8px;&quot;&gt;&lt;span style=&quot;font-size: 8px;&quot;&gt;배출자가 결정한&lt;/span&gt;&lt;br style=&quot;font-size: 8px;&quot;&gt;&lt;span style=&quot;font-size: 8px;&quot;&gt;방문시작일이&amp;nbsp;존재하는가?&lt;/span&gt;&lt;span style=&quot;font-size: 8px;&quot;&gt;SITE_WSTE_DISPOSAL_ORDER&lt;/span&gt;&lt;br style=&quot;font-size: 8px;&quot;&gt;&lt;span style=&quot;font-size: 8px;&quot;&gt;VISIT_START_AT IS NOT NULL&lt;/span&gt;&lt;br style=&quot;font-size: 8px;&quot;&gt;&lt;/font&gt;" style="rhombus;whiteSpace=wrap;html=1;shadow=0;fontFamily=Helvetica;fontSize=8;align=center;strokeWidth=1;spacing=6;spacingTop=-4;" parent="1" vertex="1">
                    <mxGeometry x="-840" y="-2468" width="220" height="176" as="geometry"/>
                </mxCell>
                <mxCell id="90" value="" style="edgeStyle=none;html=1;entryX=0.5;entryY=0;entryDx=0;entryDy=0;fontSize=8;" parent="1" source="94" target="99" edge="1">
                    <mxGeometry relative="1" as="geometry"/>
                </mxCell>
                <mxCell id="91" value="TRUE: 방문종료일 완성" style="edgeLabel;html=1;align=center;verticalAlign=middle;resizable=0;points=[];fontSize=8;" parent="90" vertex="1" connectable="0">
                    <mxGeometry x="-0.3309" y="-1" relative="1" as="geometry">
                        <mxPoint as="offset"/>
                    </mxGeometry>
                </mxCell>
                <mxCell id="92" style="edgeStyle=orthogonalEdgeStyle;html=1;entryX=1;entryY=0.5;entryDx=0;entryDy=0;fontSize=8;" parent="1" source="94" target="184" edge="1">
                    <mxGeometry relative="1" as="geometry"/>
                </mxCell>
                <mxCell id="93" value="FALSE: 방문종료일 이전" style="edgeLabel;html=1;align=center;verticalAlign=middle;resizable=0;points=[];fontSize=8;" parent="92" vertex="1" connectable="0">
                    <mxGeometry x="0.1498" y="-1" relative="1" as="geometry">
                        <mxPoint as="offset"/>
                    </mxGeometry>
                </mxCell>
                <mxCell id="94" value="&lt;font style=&quot;font-size: 8px;&quot;&gt;&lt;span style=&quot;font-size: 8px;&quot;&gt;배출자가 결정한&lt;/span&gt;&lt;br style=&quot;font-size: 8px;&quot;&gt;&lt;span style=&quot;font-size: 8px;&quot;&gt;방문종료일이 지났는가?&lt;br style=&quot;font-size: 8px;&quot;&gt;&lt;/span&gt;&lt;span style=&quot;font-size: 8px;&quot;&gt;SITE_WSTE_DISPOSAL_ORDER&lt;/span&gt;&lt;br style=&quot;font-size: 8px;&quot;&gt;&lt;span style=&quot;font-size: 8px;&quot;&gt;VISIT_END_AT &amp;lt;= NOW()&lt;/span&gt;&lt;br style=&quot;font-size: 8px;&quot;&gt;&lt;/font&gt;" style="rhombus;whiteSpace=wrap;html=1;shadow=0;fontFamily=Helvetica;fontSize=8;align=center;strokeWidth=1;spacing=6;spacingTop=-4;" parent="1" vertex="1">
                    <mxGeometry x="-840" y="-1960" width="220" height="176" as="geometry"/>
                </mxCell>
                <mxCell id="95" value="" style="edgeStyle=none;html=1;entryX=0.5;entryY=0;entryDx=0;entryDy=0;fontSize=8;" parent="1" source="99" target="104" edge="1">
                    <mxGeometry relative="1" as="geometry"/>
                </mxCell>
                <mxCell id="96" value="TRUE: 방문자 존재함" style="edgeLabel;html=1;align=center;verticalAlign=middle;resizable=0;points=[];fontSize=8;" parent="95" vertex="1" connectable="0">
                    <mxGeometry x="-0.2253" y="1" relative="1" as="geometry">
                        <mxPoint as="offset"/>
                    </mxGeometry>
                </mxCell>
                <mxCell id="97" style="edgeStyle=orthogonalEdgeStyle;html=1;entryX=1;entryY=0.5;entryDx=0;entryDy=0;fontSize=8;" parent="1" source="99" target="183" edge="1">
                    <mxGeometry relative="1" as="geometry"/>
                </mxCell>
                <mxCell id="98" value="FALSE: 방문자 없음" style="edgeLabel;html=1;align=center;verticalAlign=middle;resizable=0;points=[];fontSize=8;" parent="97" vertex="1" connectable="0">
                    <mxGeometry x="-0.1561" relative="1" as="geometry">
                        <mxPoint as="offset"/>
                    </mxGeometry>
                </mxCell>
                <mxCell id="99" value="&lt;font style=&quot;font-size: 8px;&quot;&gt;&lt;span style=&quot;font-size: 8px;&quot;&gt;방문자가 존재하는가?&lt;br style=&quot;font-size: 8px;&quot;&gt;&lt;/span&gt;&lt;span style=&quot;font-size: 8px;&quot;&gt;SITE_WSTE_DISPOSAL_ORDER&lt;/span&gt;&lt;br style=&quot;font-size: 8px;&quot;&gt;&lt;span style=&quot;font-size: 8px;&quot;&gt;PROSPECTIVE_VISITORS &amp;gt; 0&lt;/span&gt;&lt;br style=&quot;font-size: 8px;&quot;&gt;&lt;/font&gt;" style="rhombus;whiteSpace=wrap;html=1;shadow=0;fontFamily=Helvetica;fontSize=8;align=center;strokeWidth=1;spacing=6;spacingTop=-4;" parent="1" vertex="1">
                    <mxGeometry x="-840" y="-1700" width="220" height="176" as="geometry"/>
                </mxCell>
                <mxCell id="100" value="" style="edgeStyle=none;html=1;entryX=0.5;entryY=0;entryDx=0;entryDy=0;fontSize=8;" parent="1" source="104" target="109" edge="1">
                    <mxGeometry relative="1" as="geometry"/>
                </mxCell>
                <mxCell id="101" value="TRUE: 입찰종료" style="edgeLabel;html=1;align=center;verticalAlign=middle;resizable=0;points=[];fontSize=8;" parent="100" vertex="1" connectable="0">
                    <mxGeometry x="-0.3037" relative="1" as="geometry">
                        <mxPoint as="offset"/>
                    </mxGeometry>
                </mxCell>
                <mxCell id="102" style="edgeStyle=orthogonalEdgeStyle;html=1;entryX=0;entryY=0.5;entryDx=0;entryDy=0;fontSize=8;" parent="1" source="104" target="175" edge="1">
                    <mxGeometry relative="1" as="geometry">
                        <mxPoint x="-490.00000000000045" y="-1352" as="targetPoint"/>
                    </mxGeometry>
                </mxCell>
                <mxCell id="103" value="FALSE: 입찰기한 남음" style="edgeLabel;html=1;align=center;verticalAlign=middle;resizable=0;points=[];fontSize=8;" parent="102" vertex="1" connectable="0">
                    <mxGeometry x="-0.4177" relative="1" as="geometry">
                        <mxPoint x="22" as="offset"/>
                    </mxGeometry>
                </mxCell>
                <mxCell id="104" value="&lt;font style=&quot;font-size: 8px;&quot;&gt;&lt;span style=&quot;font-size: 8px;&quot;&gt;입찰종료일이 마감되었는가?&lt;br style=&quot;font-size: 8px;&quot;&gt;&lt;/span&gt;&lt;span style=&quot;font-size: 8px;&quot;&gt;SITE_WSTE_DISPOSAL_ORDER&lt;/span&gt;&lt;br style=&quot;font-size: 8px;&quot;&gt;&lt;span style=&quot;font-size: 8px;&quot;&gt;BIDDING_END_AT &amp;lt;= NOW()&amp;nbsp;&lt;/span&gt;&lt;br style=&quot;font-size: 8px;&quot;&gt;&lt;/font&gt;" style="rhombus;whiteSpace=wrap;html=1;shadow=0;fontFamily=Helvetica;fontSize=8;align=center;strokeWidth=1;spacing=6;spacingTop=-4;" parent="1" vertex="1">
                    <mxGeometry x="-840" y="-1440" width="220" height="176" as="geometry"/>
                </mxCell>
                <mxCell id="105" value="" style="edgeStyle=none;html=1;entryX=0.5;entryY=0;entryDx=0;entryDy=0;fontSize=8;fillColor=#60a917;strokeColor=#2D7600;" parent="1" source="109" target="114" edge="1">
                    <mxGeometry relative="1" as="geometry"/>
                </mxCell>
                <mxCell id="106" value="TRUE: 입찰자 존재함" style="edgeLabel;html=1;align=center;verticalAlign=middle;resizable=0;points=[];fontSize=8;fontColor=#00FF00;" parent="105" vertex="1" connectable="0">
                    <mxGeometry x="-0.4064" y="1" relative="1" as="geometry">
                        <mxPoint as="offset"/>
                    </mxGeometry>
                </mxCell>
                <mxCell id="107" style="edgeStyle=orthogonalEdgeStyle;html=1;entryX=1;entryY=0.5;entryDx=0;entryDy=0;fontSize=8;" parent="1" source="109" target="169" edge="1">
                    <mxGeometry relative="1" as="geometry"/>
                </mxCell>
                <mxCell id="108" value="FALSE: 입찰자 없음" style="edgeLabel;html=1;align=center;verticalAlign=middle;resizable=0;points=[];fontSize=8;" parent="107" vertex="1" connectable="0">
                    <mxGeometry x="-0.1931" y="2" relative="1" as="geometry">
                        <mxPoint x="-18" y="-2" as="offset"/>
                    </mxGeometry>
                </mxCell>
                <mxCell id="222" style="edgeStyle=orthogonalEdgeStyle;curved=1;html=1;entryX=0.5;entryY=0;entryDx=0;entryDy=0;dashed=1;fontSize=8;fontColor=#00CC00;strokeColor=#B09500;fillColor=#e3c800;" edge="1" parent="1" source="109" target="119">
                    <mxGeometry relative="1" as="geometry">
                        <Array as="points">
                            <mxPoint x="-540" y="-1092"/>
                            <mxPoint x="-540" y="-660"/>
                        </Array>
                    </mxGeometry>
                </mxCell>
                <mxCell id="223" value="X" style="edgeLabel;html=1;align=center;verticalAlign=middle;resizable=0;points=[];fontSize=8;fontColor=#999900;" vertex="1" connectable="0" parent="222">
                    <mxGeometry x="-0.5656" y="-13" relative="1" as="geometry">
                        <mxPoint as="offset"/>
                    </mxGeometry>
                </mxCell>
                <mxCell id="109" value="&lt;font style=&quot;font-size: 8px&quot;&gt;&lt;span style=&quot;font-size: 8px&quot;&gt;입찰자가 존재하는가?&lt;br style=&quot;font-size: 8px&quot;&gt;&lt;/span&gt;&lt;span style=&quot;font-size: 8px&quot;&gt;SITE_WSTE_DISPOSAL_ORDER&lt;/span&gt;&lt;br style=&quot;font-size: 8px&quot;&gt;&lt;span style=&quot;font-size: 8px&quot;&gt;BIDDERS &amp;gt; 0&lt;/span&gt;&lt;br style=&quot;font-size: 8px&quot;&gt;&lt;/font&gt;" style="rhombus;whiteSpace=wrap;html=1;shadow=0;fontFamily=Helvetica;fontSize=8;align=center;strokeWidth=1;spacing=6;spacingTop=-4;" parent="1" vertex="1">
                    <mxGeometry x="-840" y="-1180" width="220" height="176" as="geometry"/>
                </mxCell>
                <mxCell id="110" value="" style="edgeStyle=none;html=1;entryX=0.5;entryY=0;entryDx=0;entryDy=0;fontSize=8;fillColor=#60a917;strokeColor=#2D7600;" parent="1" source="114" target="119" edge="1">
                    <mxGeometry relative="1" as="geometry"/>
                </mxCell>
                <mxCell id="111" value="&amp;nbsp;TRUE: 수거요청일 존재함" style="edgeLabel;html=1;align=center;verticalAlign=middle;resizable=0;points=[];fontSize=8;fontColor=#00CC00;" parent="110" vertex="1" connectable="0">
                    <mxGeometry x="-0.3711" y="2" relative="1" as="geometry">
                        <mxPoint as="offset"/>
                    </mxGeometry>
                </mxCell>
                <mxCell id="112" value="" style="edgeStyle=orthogonalEdgeStyle;html=1;fontSize=8;fillColor=#60a917;strokeColor=#2D7600;" parent="1" source="114" target="166" edge="1">
                    <mxGeometry relative="1" as="geometry"/>
                </mxCell>
                <mxCell id="113" value="FALSE: 수거요청일 없음" style="edgeLabel;html=1;align=center;verticalAlign=middle;resizable=0;points=[];fontSize=8;fontColor=#00CC00;" parent="112" vertex="1" connectable="0">
                    <mxGeometry x="0.3561" relative="1" as="geometry">
                        <mxPoint x="25" as="offset"/>
                    </mxGeometry>
                </mxCell>
                <mxCell id="114" value="&lt;font style=&quot;font-size: 8px;&quot;&gt;&lt;span style=&quot;font-size: 8px;&quot;&gt;수거요청일이 존재하는가?&lt;br style=&quot;font-size: 8px;&quot;&gt;&lt;/span&gt;&lt;span style=&quot;font-size: 8px;&quot;&gt;WSTE_CLCT_TRMT_TRANSACTION&lt;/span&gt;&lt;br style=&quot;font-size: 8px;&quot;&gt;&lt;span style=&quot;font-size: 8px;&quot;&gt;COLLECT_ASK_END_AT&amp;nbsp;IS NOT NULL&lt;/span&gt;&lt;br style=&quot;font-size: 8px;&quot;&gt;&lt;/font&gt;" style="rhombus;whiteSpace=wrap;html=1;shadow=0;fontFamily=Helvetica;fontSize=8;align=center;strokeWidth=1;spacing=6;spacingTop=-4;fillColor=#60a917;fontColor=#ffffff;strokeColor=#2D7600;" parent="1" vertex="1">
                    <mxGeometry x="-840" y="-920" width="220" height="176" as="geometry"/>
                </mxCell>
                <mxCell id="115" value="" style="edgeStyle=none;html=1;entryX=0.5;entryY=0;entryDx=0;entryDy=0;fontSize=8;" parent="1" source="119" target="124" edge="1">
                    <mxGeometry relative="1" as="geometry"/>
                </mxCell>
                <mxCell id="116" value="TRUE: 1순위자 의사표시 존재함" style="edgeLabel;html=1;align=center;verticalAlign=middle;resizable=0;points=[];fontSize=8;" parent="115" vertex="1" connectable="0">
                    <mxGeometry x="-0.2915" relative="1" as="geometry">
                        <mxPoint as="offset"/>
                    </mxGeometry>
                </mxCell>
                <mxCell id="117" style="edgeStyle=orthogonalEdgeStyle;html=1;entryX=0;entryY=0.5;entryDx=0;entryDy=0;fontSize=8;" parent="1" source="119" target="158" edge="1">
                    <mxGeometry relative="1" as="geometry"/>
                </mxCell>
                <mxCell id="118" value="FALSE: 1순위자 의사표시 없음" style="edgeLabel;html=1;align=center;verticalAlign=middle;resizable=0;points=[];fontSize=8;" parent="117" vertex="1" connectable="0">
                    <mxGeometry x="-0.3593" y="1" relative="1" as="geometry">
                        <mxPoint x="19" y="1" as="offset"/>
                    </mxGeometry>
                </mxCell>
                <mxCell id="119" value="&lt;font style=&quot;font-size: 8px;&quot;&gt;&lt;span style=&quot;font-size: 8px;&quot;&gt;1순위자의 승낙 또는 거절의 &lt;br style=&quot;font-size: 8px;&quot;&gt;의사표시가 존재하는가?&lt;br style=&quot;font-size: 8px;&quot;&gt;&lt;/span&gt;&lt;span style=&quot;font-size: 8px;&quot;&gt;SITE_WSTE_DISPOSAL_ORDER&lt;/span&gt;&lt;br style=&quot;font-size: 8px;&quot;&gt;&lt;span style=&quot;font-size: 8px;&quot;&gt;COLLECTOR_SELECTION_CONFIRMED&amp;nbsp;&lt;br style=&quot;font-size: 8px;&quot;&gt;IS NOT NULL&lt;/span&gt;&lt;br style=&quot;font-size: 8px;&quot;&gt;&lt;/font&gt;" style="rhombus;whiteSpace=wrap;html=1;shadow=0;fontFamily=Helvetica;fontSize=8;align=center;strokeWidth=1;spacing=6;spacingTop=-4;" parent="1" vertex="1">
                    <mxGeometry x="-840" y="-660" width="220" height="176" as="geometry"/>
                </mxCell>
                <mxCell id="120" value="" style="edgeStyle=orthogonalEdgeStyle;html=1;entryX=0;entryY=0.5;entryDx=0;entryDy=0;exitX=0;exitY=0.5;exitDx=0;exitDy=0;fontSize=8;" parent="1" source="124" target="145" edge="1">
                    <mxGeometry relative="1" as="geometry">
                        <mxPoint x="-970" y="-312" as="targetPoint"/>
                        <Array as="points">
                            <mxPoint x="-1170" y="-312"/>
                            <mxPoint x="-1170" y="728"/>
                        </Array>
                    </mxGeometry>
                </mxCell>
                <mxCell id="121" value="&lt;font style=&quot;font-size: 8px;&quot;&gt;TRUE: 1순위자 승낙함&lt;/font&gt;" style="edgeLabel;html=1;align=center;verticalAlign=middle;resizable=0;points=[];fontSize=8;" parent="120" vertex="1" connectable="0">
                    <mxGeometry x="-0.2586" relative="1" as="geometry">
                        <mxPoint x="220" y="-301" as="offset"/>
                    </mxGeometry>
                </mxCell>
                <mxCell id="122" value="" style="edgeStyle=none;html=1;fontSize=8;" parent="1" source="124" target="129" edge="1">
                    <mxGeometry relative="1" as="geometry"/>
                </mxCell>
                <mxCell id="123" value="FALSE: 1순취자 거절" style="edgeLabel;html=1;align=center;verticalAlign=middle;resizable=0;points=[];fontSize=8;" parent="122" vertex="1" connectable="0">
                    <mxGeometry x="-0.3585" y="1" relative="1" as="geometry">
                        <mxPoint y="-1" as="offset"/>
                    </mxGeometry>
                </mxCell>
                <mxCell id="124" value="&lt;font style=&quot;font-size: 8px;&quot;&gt;&lt;span style=&quot;font-size: 8px;&quot;&gt;1순위자가 승낙하였는가?&lt;br style=&quot;font-size: 8px;&quot;&gt;&lt;/span&gt;&lt;span style=&quot;font-size: 8px;&quot;&gt;SITE_WSTE_DISPOSAL_ORDER&lt;/span&gt;&lt;br style=&quot;font-size: 8px;&quot;&gt;&lt;span style=&quot;font-size: 8px;&quot;&gt;COLLECTOR_SELECTION_CONFIRMED&amp;nbsp;&lt;br style=&quot;font-size: 8px;&quot;&gt;= TRUE&lt;/span&gt;&lt;br style=&quot;font-size: 8px;&quot;&gt;&lt;/font&gt;" style="rhombus;whiteSpace=wrap;html=1;shadow=0;fontFamily=Helvetica;fontSize=8;align=center;strokeWidth=1;spacing=6;spacingTop=-4;" parent="1" vertex="1">
                    <mxGeometry x="-840" y="-400" width="220" height="176" as="geometry"/>
                </mxCell>
                <mxCell id="125" style="edgeStyle=none;html=1;entryX=0;entryY=0.5;entryDx=0;entryDy=0;fontSize=8;" parent="1" source="129" target="130" edge="1">
                    <mxGeometry relative="1" as="geometry"/>
                </mxCell>
                <mxCell id="126" value="FALSE : 2순위자 존재하지 않음" style="edgeLabel;html=1;align=center;verticalAlign=middle;resizable=0;points=[];fontSize=8;" parent="125" vertex="1" connectable="0">
                    <mxGeometry x="-0.4112" y="-2" relative="1" as="geometry">
                        <mxPoint x="6" y="2" as="offset"/>
                    </mxGeometry>
                </mxCell>
                <mxCell id="127" value="" style="edgeStyle=none;html=1;fontSize=8;" parent="1" source="129" target="135" edge="1">
                    <mxGeometry relative="1" as="geometry"/>
                </mxCell>
                <mxCell id="128" value="TRUE: 2순위자 존재함" style="edgeLabel;html=1;align=center;verticalAlign=middle;resizable=0;points=[];fontSize=8;" parent="127" vertex="1" connectable="0">
                    <mxGeometry x="-0.3167" y="1" relative="1" as="geometry">
                        <mxPoint as="offset"/>
                    </mxGeometry>
                </mxCell>
                <mxCell id="129" value="&lt;font style=&quot;font-size: 8px;&quot;&gt;&lt;span style=&quot;font-size: 8px;&quot;&gt;2순위자가 존재하는가?&lt;br style=&quot;font-size: 8px;&quot;&gt;&lt;/span&gt;&lt;span style=&quot;font-size: 8px;&quot;&gt;SITE_WSTE_DISPOSAL_ORDER&lt;/span&gt;&lt;br style=&quot;font-size: 8px;&quot;&gt;&lt;span style=&quot;font-size: 8px;&quot;&gt;SECOND_PLACE IS NOT NULL&lt;/span&gt;&lt;br style=&quot;font-size: 8px;&quot;&gt;&lt;/font&gt;" style="rhombus;whiteSpace=wrap;html=1;shadow=0;fontFamily=Helvetica;fontSize=8;align=center;strokeWidth=1;spacing=6;spacingTop=-4;" parent="1" vertex="1">
                    <mxGeometry x="-840" y="-140" width="220" height="176" as="geometry"/>
                </mxCell>
                <mxCell id="130" value="121&lt;br style=&quot;font-size: 8px;&quot;&gt;확인포기종료" style="whiteSpace=wrap;html=1;shadow=0;strokeWidth=1;spacing=6;spacingTop=-4;fontSize=8;" parent="1" vertex="1">
                    <mxGeometry x="-1100" y="-82.00000000000011" width="120" height="60" as="geometry"/>
                </mxCell>
                <mxCell id="131" value="" style="edgeStyle=none;html=1;fontSize=8;" parent="1" source="135" target="140" edge="1">
                    <mxGeometry relative="1" as="geometry">
                        <Array as="points">
                            <mxPoint x="-730" y="330"/>
                        </Array>
                    </mxGeometry>
                </mxCell>
                <mxCell id="132" value="TRUE: 2순위자 의사표시 존재함" style="edgeLabel;html=1;align=center;verticalAlign=middle;resizable=0;points=[];fontSize=8;" parent="131" vertex="1" connectable="0">
                    <mxGeometry x="-0.3683" relative="1" as="geometry">
                        <mxPoint as="offset"/>
                    </mxGeometry>
                </mxCell>
                <mxCell id="133" style="edgeStyle=orthogonalEdgeStyle;html=1;entryX=0;entryY=0.5;entryDx=0;entryDy=0;fontSize=8;" parent="1" source="135" target="153" edge="1">
                    <mxGeometry relative="1" as="geometry"/>
                </mxCell>
                <mxCell id="134" value="FALSE: 2순위자 의사표시 없음" style="edgeLabel;html=1;align=center;verticalAlign=middle;resizable=0;points=[];fontSize=8;" parent="133" vertex="1" connectable="0">
                    <mxGeometry x="-0.248" relative="1" as="geometry">
                        <mxPoint x="11" as="offset"/>
                    </mxGeometry>
                </mxCell>
                <mxCell id="135" value="&lt;font style=&quot;font-size: 8px;&quot;&gt;&lt;span style=&quot;font-size: 8px;&quot;&gt;2순위자가 승낙 또는 거절의 &lt;br style=&quot;font-size: 8px;&quot;&gt;의사표시를 하였는가?&lt;br style=&quot;font-size: 8px;&quot;&gt;&lt;/span&gt;&lt;span style=&quot;font-size: 8px;&quot;&gt;SITE_WSTE_DISPOSAL_ORDER&lt;/span&gt;&lt;br style=&quot;font-size: 8px;&quot;&gt;&lt;span style=&quot;font-size: 8px;&quot;&gt;COLLECTOR_SELECTION_CONFIRMED2&lt;br style=&quot;font-size: 8px;&quot;&gt;IS NOT NULL&lt;/span&gt;&lt;br style=&quot;font-size: 8px;&quot;&gt;&lt;/font&gt;" style="rhombus;whiteSpace=wrap;html=1;shadow=0;fontFamily=Helvetica;fontSize=8;align=center;strokeWidth=1;spacing=6;spacingTop=-4;" parent="1" vertex="1">
                    <mxGeometry x="-840" y="120" width="220" height="176" as="geometry"/>
                </mxCell>
                <mxCell id="136" value="" style="edgeStyle=none;html=1;fontSize=8;" parent="1" source="140" target="145" edge="1">
                    <mxGeometry relative="1" as="geometry"/>
                </mxCell>
                <mxCell id="137" value="TRUE: 2순위자 승낙함" style="edgeLabel;html=1;align=center;verticalAlign=middle;resizable=0;points=[];fontSize=8;" parent="136" vertex="1" connectable="0">
                    <mxGeometry x="-0.2219" y="-2" relative="1" as="geometry">
                        <mxPoint as="offset"/>
                    </mxGeometry>
                </mxCell>
                <mxCell id="138" style="edgeStyle=orthogonalEdgeStyle;html=1;entryX=1;entryY=0.5;entryDx=0;entryDy=0;fontSize=8;" parent="1" source="140" target="148" edge="1">
                    <mxGeometry relative="1" as="geometry"/>
                </mxCell>
                <mxCell id="139" value="FALSE: 2순위자 거절" style="edgeLabel;html=1;align=center;verticalAlign=middle;resizable=0;points=[];fontSize=8;" parent="138" vertex="1" connectable="0">
                    <mxGeometry x="-0.1953" relative="1" as="geometry">
                        <mxPoint x="-13" as="offset"/>
                    </mxGeometry>
                </mxCell>
                <mxCell id="140" value="&lt;font style=&quot;font-size: 8px;&quot;&gt;&lt;span style=&quot;font-size: 8px;&quot;&gt;2순위자가 승낙하였는가?&lt;br style=&quot;font-size: 8px;&quot;&gt;&lt;/span&gt;&lt;span style=&quot;font-size: 8px;&quot;&gt;SITE_WSTE_DISPOSAL_ORDER&lt;/span&gt;&lt;br style=&quot;font-size: 8px;&quot;&gt;&lt;span style=&quot;font-size: 8px;&quot;&gt;COLLECTOR_SELECTION_CONFIRMED2&lt;br style=&quot;font-size: 8px;&quot;&gt;= TRUE&lt;/span&gt;&lt;br style=&quot;font-size: 8px;&quot;&gt;&lt;/font&gt;" style="rhombus;whiteSpace=wrap;html=1;shadow=0;fontFamily=Helvetica;fontSize=8;align=center;strokeWidth=1;spacing=6;spacingTop=-4;" parent="1" vertex="1">
                    <mxGeometry x="-840" y="380" width="220" height="176" as="geometry"/>
                </mxCell>
                <mxCell id="141" value="" style="edgeStyle=none;html=1;fontSize=8;" parent="1" source="145" target="146" edge="1">
                    <mxGeometry relative="1" as="geometry"/>
                </mxCell>
                <mxCell id="142" value="FALSE: 계약기간중" style="edgeLabel;html=1;align=center;verticalAlign=middle;resizable=0;points=[];fontSize=8;" parent="141" vertex="1" connectable="0">
                    <mxGeometry x="-0.1935" y="1" relative="1" as="geometry">
                        <mxPoint as="offset"/>
                    </mxGeometry>
                </mxCell>
                <mxCell id="143" style="edgeStyle=none;html=1;entryX=0;entryY=0.5;entryDx=0;entryDy=0;fontSize=8;" parent="1" source="145" target="147" edge="1">
                    <mxGeometry relative="1" as="geometry"/>
                </mxCell>
                <mxCell id="144" value="TRUE: 계약종료" style="edgeLabel;html=1;align=center;verticalAlign=middle;resizable=0;points=[];fontSize=8;" parent="143" vertex="1" connectable="0">
                    <mxGeometry x="-0.1197" y="1" relative="1" as="geometry">
                        <mxPoint as="offset"/>
                    </mxGeometry>
                </mxCell>
                <mxCell id="145" value="&lt;font style=&quot;font-size: 8px;&quot;&gt;&lt;span style=&quot;font-size: 8px;&quot;&gt;계약기간이 종료되었는가?&lt;br style=&quot;font-size: 8px;&quot;&gt;&lt;/span&gt;&lt;span style=&quot;font-size: 8px;&quot;&gt;SITE_WSTE_DISPOSAL_ORDER&lt;/span&gt;&lt;br style=&quot;font-size: 8px;&quot;&gt;&lt;span style=&quot;font-size: 8px;&quot;&gt;CLOSE_AT &amp;lt;= NOW()&lt;/span&gt;&lt;br style=&quot;font-size: 8px;&quot;&gt;&lt;/font&gt;" style="rhombus;whiteSpace=wrap;html=1;shadow=0;fontFamily=Helvetica;fontSize=8;align=center;strokeWidth=1;spacing=6;spacingTop=-4;" parent="1" vertex="1">
                    <mxGeometry x="-840" y="640" width="220" height="176" as="geometry"/>
                </mxCell>
                <mxCell id="146" value="118&lt;br style=&quot;font-size: 8px;&quot;&gt;처리중" style="whiteSpace=wrap;html=1;shadow=0;strokeWidth=1;spacing=6;spacingTop=-4;fontSize=8;" parent="1" vertex="1">
                    <mxGeometry x="-790" y="910" width="120" height="60" as="geometry"/>
                </mxCell>
                <mxCell id="147" value="105&lt;br style=&quot;font-size: 8px;&quot;&gt;거래종료" style="whiteSpace=wrap;html=1;shadow=0;strokeWidth=1;spacing=6;spacingTop=-4;fontSize=8;" parent="1" vertex="1">
                    <mxGeometry x="-440" y="698" width="120" height="60" as="geometry"/>
                </mxCell>
                <mxCell id="148" value="105&lt;br style=&quot;font-size: 8px;&quot;&gt;거래종료" style="whiteSpace=wrap;html=1;shadow=0;strokeWidth=1;spacing=6;spacingTop=-4;fontSize=8;" parent="1" vertex="1">
                    <mxGeometry x="-1100" y="438" width="120" height="60" as="geometry"/>
                </mxCell>
                <mxCell id="149" style="edgeStyle=orthogonalEdgeStyle;html=1;entryX=0.5;entryY=0;entryDx=0;entryDy=0;fontSize=8;" parent="1" source="153" target="154" edge="1">
                    <mxGeometry relative="1" as="geometry"/>
                </mxCell>
                <mxCell id="150" value="FALSE: 기한이 남아 있음" style="edgeLabel;html=1;align=center;verticalAlign=middle;resizable=0;points=[];fontSize=8;" parent="149" vertex="1" connectable="0">
                    <mxGeometry x="-0.2509" y="1" relative="1" as="geometry">
                        <mxPoint y="1" as="offset"/>
                    </mxGeometry>
                </mxCell>
                <mxCell id="151" style="edgeStyle=orthogonalEdgeStyle;html=1;entryX=0;entryY=0.5;entryDx=0;entryDy=0;fontSize=8;" parent="1" source="153" target="155" edge="1">
                    <mxGeometry relative="1" as="geometry"/>
                </mxCell>
                <mxCell id="152" value="TRUE: 기한이 지남" style="edgeLabel;html=1;align=center;verticalAlign=middle;resizable=0;points=[];fontSize=8;" parent="151" vertex="1" connectable="0">
                    <mxGeometry x="-0.2054" y="1" relative="1" as="geometry">
                        <mxPoint as="offset"/>
                    </mxGeometry>
                </mxCell>
                <mxCell id="153" value="&lt;font style=&quot;font-size: 8px;&quot;&gt;&lt;span style=&quot;font-size: 8px;&quot;&gt;2순위자가 의사표시할 기한이 지났는가?&lt;br style=&quot;font-size: 8px;&quot;&gt;&lt;/span&gt;&lt;span style=&quot;font-size: 8px;&quot;&gt;SITE_WSTE_DISPOSAL_ORDER&lt;/span&gt;&lt;br style=&quot;font-size: 8px;&quot;&gt;&lt;span style=&quot;font-size: 8px;&quot;&gt;COLLECTOR_MAX_DECISION2_AT&lt;/span&gt;&lt;br style=&quot;font-size: 8px;&quot;&gt;&lt;span style=&quot;font-size: 8px;&quot;&gt;&amp;lt;= NOW()&lt;/span&gt;&lt;br style=&quot;font-size: 8px;&quot;&gt;&lt;/font&gt;" style="rhombus;whiteSpace=wrap;html=1;shadow=0;fontFamily=Helvetica;fontSize=8;align=center;strokeWidth=1;spacing=6;spacingTop=-4;" parent="1" vertex="1">
                    <mxGeometry x="-490" y="120" width="220" height="176" as="geometry"/>
                </mxCell>
                <mxCell id="154" value="119&lt;br style=&quot;font-size: 8px;&quot;&gt;확인중" style="whiteSpace=wrap;html=1;shadow=0;strokeWidth=1;spacing=6;spacingTop=-4;fontSize=8;" parent="1" vertex="1">
                    <mxGeometry x="-440" y="437.9999999999999" width="120" height="60" as="geometry"/>
                </mxCell>
                <mxCell id="155" value="121&lt;br style=&quot;font-size: 8px;&quot;&gt;확인포기종료" style="whiteSpace=wrap;html=1;shadow=0;strokeWidth=1;spacing=6;spacingTop=-4;fontSize=8;" parent="1" vertex="1">
                    <mxGeometry x="-140" y="178" width="120" height="60" as="geometry"/>
                </mxCell>
                <mxCell id="156" style="edgeStyle=orthogonalEdgeStyle;html=1;entryX=1;entryY=0.5;entryDx=0;entryDy=0;fontSize=8;" parent="1" source="158" target="129" edge="1">
                    <mxGeometry relative="1" as="geometry">
                        <Array as="points">
                            <mxPoint x="-380" y="-52"/>
                        </Array>
                    </mxGeometry>
                </mxCell>
                <mxCell id="157" value="TRUE: 기한이 지남" style="edgeLabel;html=1;align=center;verticalAlign=middle;resizable=0;points=[];fontSize=8;" parent="156" vertex="1" connectable="0">
                    <mxGeometry x="-0.8098" y="2" relative="1" as="geometry">
                        <mxPoint as="offset"/>
                    </mxGeometry>
                </mxCell>
                <mxCell id="158" value="&lt;font style=&quot;font-size: 8px;&quot;&gt;&lt;span style=&quot;font-size: 8px;&quot;&gt;1순위자가 의사표시할 기한이 지났는가?&lt;br style=&quot;font-size: 8px;&quot;&gt;&lt;/span&gt;&lt;span style=&quot;font-size: 8px;&quot;&gt;SITE_WSTE_DISPOSAL_ORDER&lt;/span&gt;&lt;br style=&quot;font-size: 8px;&quot;&gt;&lt;span style=&quot;font-size: 8px;&quot;&gt;COLLECTOR_MAX_DECISION_AT&lt;/span&gt;&lt;br style=&quot;font-size: 8px;&quot;&gt;&lt;span style=&quot;font-size: 8px;&quot;&gt;&amp;lt;= NOW()&lt;/span&gt;&lt;br style=&quot;font-size: 8px;&quot;&gt;&lt;/font&gt;" style="rhombus;whiteSpace=wrap;html=1;shadow=0;fontFamily=Helvetica;fontSize=8;align=center;strokeWidth=1;spacing=6;spacingTop=-4;" parent="1" vertex="1">
                    <mxGeometry x="-490" y="-660" width="220" height="176" as="geometry"/>
                </mxCell>
                <mxCell id="159" value="119&lt;br style=&quot;font-size: 8px;&quot;&gt;확인중" style="whiteSpace=wrap;html=1;shadow=0;strokeWidth=1;spacing=6;spacingTop=-4;fontSize=8;" parent="1" vertex="1">
                    <mxGeometry x="-140" y="-602.0000000000001" width="120" height="60" as="geometry"/>
                </mxCell>
                <mxCell id="160" style="edgeStyle=orthogonalEdgeStyle;html=1;entryX=0;entryY=0.5;entryDx=0;entryDy=0;fontSize=8;" parent="1" source="158" target="159" edge="1">
                    <mxGeometry relative="1" as="geometry"/>
                </mxCell>
                <mxCell id="161" value="FALSE: 기한이 남아 있음" style="edgeLabel;html=1;align=center;verticalAlign=middle;resizable=0;points=[];fontSize=8;" parent="160" vertex="1" connectable="0">
                    <mxGeometry x="-0.2509" y="1" relative="1" as="geometry">
                        <mxPoint y="1" as="offset"/>
                    </mxGeometry>
                </mxCell>
                <mxCell id="162" style="edgeStyle=orthogonalEdgeStyle;html=1;entryX=1;entryY=0.5;entryDx=0;entryDy=0;fontSize=8;fillColor=#60a917;strokeColor=#2D7600;" parent="1" source="166" target="167" edge="1">
                    <mxGeometry relative="1" as="geometry"/>
                </mxCell>
                <mxCell id="163" value="TRUE: 기한이 지남" style="edgeLabel;html=1;align=center;verticalAlign=middle;resizable=0;points=[];fontSize=8;fontColor=#00CC00;" parent="162" vertex="1" connectable="0">
                    <mxGeometry x="0.2975" y="1" relative="1" as="geometry">
                        <mxPoint x="24" y="-1" as="offset"/>
                    </mxGeometry>
                </mxCell>
                <mxCell id="164" style="edgeStyle=orthogonalEdgeStyle;html=1;entryX=0.5;entryY=0;entryDx=0;entryDy=0;fontSize=8;fillColor=#60a917;strokeColor=#2D7600;" parent="1" source="166" target="168" edge="1">
                    <mxGeometry relative="1" as="geometry"/>
                </mxCell>
                <mxCell id="165" value="FALSE: 기한이 남음" style="edgeLabel;html=1;align=center;verticalAlign=middle;resizable=0;points=[];fontSize=8;fontColor=#00CC00;" parent="164" vertex="1" connectable="0">
                    <mxGeometry x="-0.2344" y="-1" relative="1" as="geometry">
                        <mxPoint y="1" as="offset"/>
                    </mxGeometry>
                </mxCell>
                <mxCell id="166" value="&lt;font style=&quot;font-size: 8px;&quot;&gt;&lt;span style=&quot;font-size: 8px;&quot;&gt;수거요청일을 보낼 기한이 지났는가?&lt;br style=&quot;font-size: 8px;&quot;&gt;&lt;/span&gt;&lt;span style=&quot;font-size: 8px;&quot;&gt;SITE_WSTE_DISPOSAL_ORDER&lt;/span&gt;&lt;br style=&quot;font-size: 8px;&quot;&gt;&lt;span style=&quot;font-size: 8px;&quot;&gt;MAX_SELECT_AT &amp;lt;= NOW()&lt;/span&gt;&lt;br style=&quot;font-size: 8px;&quot;&gt;&lt;/font&gt;" style="rhombus;whiteSpace=wrap;html=1;shadow=0;fontFamily=Helvetica;fontSize=8;align=center;strokeWidth=1;spacing=6;spacingTop=-4;fillColor=#60a917;fontColor=#ffffff;strokeColor=#2D7600;" parent="1" vertex="1">
                    <mxGeometry x="-1190" y="-920" width="220" height="176" as="geometry"/>
                </mxCell>
                <mxCell id="167" value="115&lt;br style=&quot;font-size: 8px;&quot;&gt;승인포기종료" style="whiteSpace=wrap;html=1;shadow=0;strokeWidth=1;spacing=6;spacingTop=-4;fontSize=8;fillColor=#60a917;fontColor=#ffffff;strokeColor=#2D7600;" parent="1" vertex="1">
                    <mxGeometry x="-1440" y="-862.0000000000001" width="120" height="60" as="geometry"/>
                </mxCell>
                <mxCell id="168" value="110&lt;br style=&quot;font-size: 8px;&quot;&gt;선정중" style="whiteSpace=wrap;html=1;shadow=0;strokeWidth=1;spacing=6;spacingTop=-4;fontSize=8;fillColor=#60a917;fontColor=#ffffff;strokeColor=#2D7600;" parent="1" vertex="1">
                    <mxGeometry x="-1140" y="-602.0000000000001" width="120" height="60" as="geometry"/>
                </mxCell>
                <mxCell id="169" value="117&lt;br style=&quot;font-size: 8px;&quot;&gt;무입찰종료" style="whiteSpace=wrap;html=1;shadow=0;strokeWidth=1;spacing=6;spacingTop=-4;fontSize=8;" parent="1" vertex="1">
                    <mxGeometry x="-1140" y="-1122" width="120" height="60" as="geometry"/>
                </mxCell>
                <mxCell id="175" value="103&lt;br style=&quot;font-size: 8px;&quot;&gt;입찰중" style="whiteSpace=wrap;html=1;shadow=0;strokeWidth=1;spacing=6;spacingTop=-4;fontSize=8;" parent="1" vertex="1">
                    <mxGeometry x="-440" y="-1382" width="120" height="60" as="geometry"/>
                </mxCell>
                <mxCell id="183" value="116&lt;br style=&quot;font-size: 8px;&quot;&gt;무방문신청종료" style="whiteSpace=wrap;html=1;shadow=0;strokeWidth=1;spacing=6;spacingTop=-4;fontSize=8;" parent="1" vertex="1">
                    <mxGeometry x="-1140" y="-1642" width="120" height="60" as="geometry"/>
                </mxCell>
                <mxCell id="184" value="102&lt;br style=&quot;font-size: 8px;&quot;&gt;방문중" style="whiteSpace=wrap;html=1;shadow=0;strokeWidth=1;spacing=6;spacingTop=-4;fontSize=8;" parent="1" vertex="1">
                    <mxGeometry x="-1140" y="-1902" width="120" height="60" as="geometry"/>
                </mxCell>
                <mxCell id="185" style="edgeStyle=orthogonalEdgeStyle;html=1;entryX=0.5;entryY=0;entryDx=0;entryDy=0;fontSize=8;" parent="1" source="189" target="94" edge="1">
                    <mxGeometry relative="1" as="geometry"/>
                </mxCell>
                <mxCell id="186" value="TRUE: 방문시작 이후" style="edgeLabel;html=1;align=center;verticalAlign=middle;resizable=0;points=[];fontSize=8;" parent="185" vertex="1" connectable="0">
                    <mxGeometry x="-0.247" relative="1" as="geometry">
                        <mxPoint as="offset"/>
                    </mxGeometry>
                </mxCell>
                <mxCell id="187" style="edgeStyle=orthogonalEdgeStyle;html=1;entryX=1;entryY=0.5;entryDx=0;entryDy=0;fontSize=8;" parent="1" source="189" target="190" edge="1">
                    <mxGeometry relative="1" as="geometry"/>
                </mxCell>
                <mxCell id="188" value="FALSE: 방문시작 이전" style="edgeLabel;html=1;align=center;verticalAlign=middle;resizable=0;points=[];fontSize=8;" parent="187" vertex="1" connectable="0">
                    <mxGeometry x="0.1736" y="1" relative="1" as="geometry">
                        <mxPoint as="offset"/>
                    </mxGeometry>
                </mxCell>
                <mxCell id="189" value="&lt;font style=&quot;font-size: 8px;&quot;&gt;&lt;span style=&quot;font-size: 8px;&quot;&gt;배출자가 결정한&lt;/span&gt;&lt;br style=&quot;font-size: 8px;&quot;&gt;&lt;span style=&quot;font-size: 8px;&quot;&gt;방문이 시작되었는가?&lt;br style=&quot;font-size: 8px;&quot;&gt;&lt;/span&gt;&lt;span style=&quot;font-size: 8px;&quot;&gt;SITE_WSTE_DISPOSAL_ORDER&lt;/span&gt;&lt;br style=&quot;font-size: 8px;&quot;&gt;&lt;span style=&quot;font-size: 8px;&quot;&gt;VISIT_START_AT &amp;lt;= NOW()&lt;/span&gt;&lt;br style=&quot;font-size: 8px;&quot;&gt;&lt;/font&gt;" style="rhombus;whiteSpace=wrap;html=1;shadow=0;fontFamily=Helvetica;fontSize=8;align=center;strokeWidth=1;spacing=6;spacingTop=-4;" parent="1" vertex="1">
                    <mxGeometry x="-840" y="-2213.5" width="220" height="176" as="geometry"/>
                </mxCell>
                <mxCell id="190" value="101&lt;br style=&quot;font-size: 8px;&quot;&gt;방문대기중" style="whiteSpace=wrap;html=1;shadow=0;strokeWidth=1;spacing=6;spacingTop=-4;fontSize=8;" parent="1" vertex="1">
                    <mxGeometry x="-1140" y="-2155.5" width="120" height="60" as="geometry"/>
                </mxCell>
                <mxCell id="191" value="" style="edgeStyle=orthogonalEdgeStyle;html=1;fontSize=8;" parent="1" source="195" target="78" edge="1">
                    <mxGeometry relative="1" as="geometry"/>
                </mxCell>
                <mxCell id="192" value="FALSE:삭제하지 않음" style="edgeLabel;html=1;align=center;verticalAlign=middle;resizable=0;points=[];fontSize=8;" parent="191" vertex="1" connectable="0">
                    <mxGeometry x="-0.2721" y="-3" relative="1" as="geometry">
                        <mxPoint as="offset"/>
                    </mxGeometry>
                </mxCell>
                <mxCell id="193" style="edgeStyle=orthogonalEdgeStyle;html=1;entryX=1;entryY=0.5;entryDx=0;entryDy=0;fontSize=8;" parent="1" source="195" target="196" edge="1">
                    <mxGeometry relative="1" as="geometry"/>
                </mxCell>
                <mxCell id="194" value="TRUE: 삭제함" style="edgeLabel;html=1;align=center;verticalAlign=middle;resizable=0;points=[];fontSize=8;" parent="193" vertex="1" connectable="0">
                    <mxGeometry x="0.1916" y="-1" relative="1" as="geometry">
                        <mxPoint as="offset"/>
                    </mxGeometry>
                </mxCell>
                <mxCell id="195" value="&lt;font style=&quot;font-size: 8px;&quot;&gt;&lt;span style=&quot;font-size: 8px;&quot;&gt;배출자가 배출신청내역을&lt;br style=&quot;font-size: 8px;&quot;&gt;삭제하였는가?&lt;br style=&quot;font-size: 8px;&quot;&gt;&lt;/span&gt;&lt;span style=&quot;font-size: 8px;&quot;&gt;SITE_WSTE_DISPOSAL_ORDER&lt;/span&gt;&lt;br style=&quot;font-size: 8px;&quot;&gt;&lt;span style=&quot;font-size: 8px;&quot;&gt;IS_DELETED = TRUE&lt;/span&gt;&lt;br style=&quot;font-size: 8px;&quot;&gt;&lt;/font&gt;" style="rhombus;whiteSpace=wrap;html=1;shadow=0;fontFamily=Helvetica;fontSize=8;align=center;strokeWidth=1;spacing=6;spacingTop=-4;" parent="1" vertex="1">
                    <mxGeometry x="-840" y="-3260" width="220" height="176" as="geometry"/>
                </mxCell>
                <mxCell id="196" value="106&lt;br style=&quot;font-size: 8px;&quot;&gt;삭제" style="whiteSpace=wrap;html=1;shadow=0;strokeWidth=1;spacing=6;spacingTop=-4;fontSize=8;" parent="1" vertex="1">
                    <mxGeometry x="-1090" y="-3202" width="120" height="60" as="geometry"/>
                </mxCell>
                <mxCell id="197" style="edgeStyle=orthogonalEdgeStyle;html=1;entryX=0.5;entryY=0;entryDx=0;entryDy=0;fontSize=8;" parent="1" source="201" target="202" edge="1">
                    <mxGeometry relative="1" as="geometry"/>
                </mxCell>
                <mxCell id="198" value="TRUE: 계약기간 종료" style="edgeLabel;html=1;align=center;verticalAlign=middle;resizable=0;points=[];fontSize=8;" parent="197" vertex="1" connectable="0">
                    <mxGeometry x="-0.2796" relative="1" as="geometry">
                        <mxPoint as="offset"/>
                    </mxGeometry>
                </mxCell>
                <mxCell id="199" style="edgeStyle=orthogonalEdgeStyle;html=1;entryX=0;entryY=0.5;entryDx=0;entryDy=0;fontSize=8;" parent="1" source="201" target="207" edge="1">
                    <mxGeometry relative="1" as="geometry"/>
                </mxCell>
                <mxCell id="200" value="FALSE: 계약기간 남음" style="edgeLabel;html=1;align=center;verticalAlign=middle;resizable=0;points=[];fontSize=8;" parent="199" vertex="1" connectable="0">
                    <mxGeometry x="-0.3295" relative="1" as="geometry">
                        <mxPoint x="21" as="offset"/>
                    </mxGeometry>
                </mxCell>
                <mxCell id="201" value="&lt;font style=&quot;font-size: 8px;&quot;&gt;&lt;span style=&quot;font-size: 8px;&quot;&gt;계약기간이 종료되었는가?&lt;br style=&quot;font-size: 8px;&quot;&gt;&lt;/span&gt;&lt;span style=&quot;font-size: 8px;&quot;&gt;SITE_WSTE_DISPOSAL_ORDER&lt;/span&gt;&lt;br style=&quot;font-size: 8px;&quot;&gt;&lt;span style=&quot;font-size: 8px;&quot;&gt;CLOSE_AT &amp;lt;= NOW()&lt;/span&gt;&lt;br style=&quot;font-size: 8px;&quot;&gt;&lt;/font&gt;" style="rhombus;whiteSpace=wrap;html=1;shadow=0;fontFamily=Helvetica;fontSize=8;align=center;strokeWidth=1;spacing=6;spacingTop=-4;" parent="1" vertex="1">
                    <mxGeometry x="-490" y="-2980" width="220" height="176" as="geometry"/>
                </mxCell>
                <mxCell id="202" value="105&lt;br style=&quot;font-size: 8px;&quot;&gt;거래종료" style="whiteSpace=wrap;html=1;shadow=0;strokeWidth=1;spacing=6;spacingTop=-4;fontSize=8;" parent="1" vertex="1">
                    <mxGeometry x="-440" y="-2666" width="120" height="60" as="geometry"/>
                </mxCell>
                <mxCell id="203" value="" style="edgeStyle=orthogonalEdgeStyle;html=1;fontSize=8;" parent="1" source="207" target="211" edge="1">
                    <mxGeometry relative="1" as="geometry"/>
                </mxCell>
                <mxCell id="204" value="TRUE: 의사표시를 함" style="edgeLabel;html=1;align=center;verticalAlign=middle;resizable=0;points=[];fontSize=8;" parent="203" vertex="1" connectable="0">
                    <mxGeometry x="-0.1362" relative="1" as="geometry">
                        <mxPoint as="offset"/>
                    </mxGeometry>
                </mxCell>
                <mxCell id="205" style="edgeStyle=orthogonalEdgeStyle;html=1;entryX=0;entryY=0.5;entryDx=0;entryDy=0;fontSize=8;" parent="1" source="207" target="218" edge="1">
                    <mxGeometry relative="1" as="geometry"/>
                </mxCell>
                <mxCell id="206" value="FALSE: 의사표시 없음" style="edgeLabel;html=1;align=center;verticalAlign=middle;resizable=0;points=[];fontSize=8;" parent="205" vertex="1" connectable="0">
                    <mxGeometry x="-0.2477" relative="1" as="geometry">
                        <mxPoint as="offset"/>
                    </mxGeometry>
                </mxCell>
                <mxCell id="207" value="&lt;font style=&quot;font-size: 8px;&quot;&gt;&lt;span style=&quot;font-size: 8px;&quot;&gt;수거자가 배출자의 수거요청에 &lt;br style=&quot;font-size: 8px;&quot;&gt;의사표시를 하였는가?&lt;br style=&quot;font-size: 8px;&quot;&gt;&lt;/span&gt;&lt;span style=&quot;font-size: 8px;&quot;&gt;WSTE_CLCT_TRMT_TRANSACTION&lt;/span&gt;&lt;br style=&quot;font-size: 8px;&quot;&gt;&lt;span style=&quot;font-size: 8px;&quot;&gt;ACCEPT_ASK_END IS NOT NULL&lt;/span&gt;&lt;br style=&quot;font-size: 8px;&quot;&gt;&lt;/font&gt;" style="rhombus;whiteSpace=wrap;html=1;shadow=0;fontFamily=Helvetica;fontSize=8;align=center;strokeWidth=1;spacing=6;spacingTop=-4;" parent="1" vertex="1">
                    <mxGeometry x="-140" y="-2980" width="220" height="176" as="geometry"/>
                </mxCell>
                <mxCell id="208" style="edgeStyle=orthogonalEdgeStyle;html=1;entryX=0.5;entryY=0;entryDx=0;entryDy=0;fontSize=8;" parent="1" source="211" target="212" edge="1">
                    <mxGeometry relative="1" as="geometry"/>
                </mxCell>
                <mxCell id="209" value="TRUE: 승낙함" style="edgeLabel;html=1;align=center;verticalAlign=middle;resizable=0;points=[];fontSize=8;" parent="208" vertex="1" connectable="0">
                    <mxGeometry x="-0.2883" y="-1" relative="1" as="geometry">
                        <mxPoint as="offset"/>
                    </mxGeometry>
                </mxCell>
                <mxCell id="210" style="edgeStyle=orthogonalEdgeStyle;html=1;entryX=0;entryY=0.5;entryDx=0;entryDy=0;fontSize=8;" parent="1" source="211" target="213" edge="1">
                    <mxGeometry relative="1" as="geometry"/>
                </mxCell>
                <mxCell id="211" value="&lt;font style=&quot;font-size: 8px;&quot;&gt;&lt;span style=&quot;font-size: 8px;&quot;&gt;수거자가 승낙하였는가?&lt;br style=&quot;font-size: 8px;&quot;&gt;&lt;/span&gt;&lt;span style=&quot;font-size: 8px;&quot;&gt;WSTE_CLCT_TRMT_TRANSACTION&lt;/span&gt;&lt;br style=&quot;font-size: 8px;&quot;&gt;&lt;span style=&quot;font-size: 8px;&quot;&gt;ACCEPT_ASK_END = TRUE&lt;/span&gt;&lt;br style=&quot;font-size: 8px;&quot;&gt;&lt;/font&gt;" style="rhombus;whiteSpace=wrap;html=1;shadow=0;fontFamily=Helvetica;fontSize=8;align=center;strokeWidth=1;spacing=6;spacingTop=-4;" parent="1" vertex="1">
                    <mxGeometry x="-140" y="-2724" width="220" height="176" as="geometry"/>
                </mxCell>
                <mxCell id="212" value="118&lt;br style=&quot;font-size: 8px;&quot;&gt;처리중" style="whiteSpace=wrap;html=1;shadow=0;strokeWidth=1;spacing=6;spacingTop=-4;fontSize=8;" parent="1" vertex="1">
                    <mxGeometry x="-90" y="-2410" width="120" height="60" as="geometry"/>
                </mxCell>
                <mxCell id="213" value="&lt;font style=&quot;font-size: 8px;&quot;&gt;122&lt;br style=&quot;font-size: 8px;&quot;&gt;기존거래거절종료&lt;/font&gt;" style="whiteSpace=wrap;html=1;shadow=0;strokeWidth=1;spacing=6;spacingTop=-4;fontSize=8;" parent="1" vertex="1">
                    <mxGeometry x="260" y="-2666" width="120" height="60" as="geometry"/>
                </mxCell>
                <mxCell id="214" style="edgeStyle=orthogonalEdgeStyle;html=1;entryX=0.5;entryY=1;entryDx=0;entryDy=0;fontSize=8;" parent="1" source="218" target="219" edge="1">
                    <mxGeometry relative="1" as="geometry"/>
                </mxCell>
                <mxCell id="215" value="TRUE: 기한 지남" style="edgeLabel;html=1;align=center;verticalAlign=middle;resizable=0;points=[];fontSize=8;" parent="214" vertex="1" connectable="0">
                    <mxGeometry x="-0.2955" relative="1" as="geometry">
                        <mxPoint as="offset"/>
                    </mxGeometry>
                </mxCell>
                <mxCell id="216" style="edgeStyle=orthogonalEdgeStyle;html=1;entryX=0;entryY=0.5;entryDx=0;entryDy=0;fontSize=8;" parent="1" source="218" target="220" edge="1">
                    <mxGeometry relative="1" as="geometry"/>
                </mxCell>
                <mxCell id="217" value="FALSE: 기한 지나지 않음" style="edgeLabel;html=1;align=center;verticalAlign=middle;resizable=0;points=[];fontSize=8;" parent="216" vertex="1" connectable="0">
                    <mxGeometry x="-0.1581" relative="1" as="geometry">
                        <mxPoint as="offset"/>
                    </mxGeometry>
                </mxCell>
                <mxCell id="218" value="&lt;font style=&quot;font-size: 8px;&quot;&gt;&lt;span style=&quot;font-size: 8px;&quot;&gt;수거자가 배출자의 수거요청에 &lt;br style=&quot;font-size: 8px;&quot;&gt;대한 의사표시 기한이 지났는가?&lt;br style=&quot;font-size: 8px;&quot;&gt;&lt;/span&gt;&lt;span style=&quot;font-size: 8px;&quot;&gt;WSTE_CLCT_TRMT_TRANSACTION&lt;/span&gt;&lt;br style=&quot;font-size: 8px;&quot;&gt;&lt;span style=&quot;font-size: 8px;&quot;&gt;MAX_DECISION_AT &amp;lt;= NOW()&lt;/span&gt;&lt;br style=&quot;font-size: 8px;&quot;&gt;&lt;/font&gt;" style="rhombus;whiteSpace=wrap;html=1;shadow=0;fontFamily=Helvetica;fontSize=8;align=center;strokeWidth=1;spacing=6;spacingTop=-4;" parent="1" vertex="1">
                    <mxGeometry x="210" y="-2980" width="220" height="176" as="geometry"/>
                </mxCell>
                <mxCell id="219" value="&lt;font style=&quot;font-size: 8px;&quot;&gt;122&lt;br style=&quot;font-size: 8px;&quot;&gt;기존거래거절종료&lt;/font&gt;" style="whiteSpace=wrap;html=1;shadow=0;strokeWidth=1;spacing=6;spacingTop=-4;fontSize=8;" parent="1" vertex="1">
                    <mxGeometry x="260" y="-3180" width="120" height="60" as="geometry"/>
                </mxCell>
                <mxCell id="220" value="&lt;font style=&quot;font-size: 8px;&quot;&gt;104&lt;br style=&quot;font-size: 8px;&quot;&gt;기존거래&lt;/font&gt;" style="whiteSpace=wrap;html=1;shadow=0;strokeWidth=1;spacing=6;spacingTop=-4;fontSize=8;" parent="1" vertex="1">
                    <mxGeometry x="560" y="-2922" width="120" height="60" as="geometry"/>
                </mxCell>
            </root>
        </mxGraphModel>
    </diagram>
</mxfile>